<?xml version="1.0" encoding="UTF-8"?>
<svg id="Layer_1" xmlns="http://www.w3.org/2000/svg" version="1.1" viewBox="0 0 565 136">
  <!-- Generator: Adobe Illustrator 29.0.0, SVG Export Plug-In . SVG Version: 2.1.0 Build 186)  -->
  <defs>
    <style>
      .st0 {
        fill: #7f7f7f;
        font-family: ArialMT, Arial;
        font-size: 24px;
      }

      .st1 {
        fill: #fff;
      }

      .st1, .st2 {
        stroke: #ffd25c;
        stroke-miterlimit: 10;
      }

      .st2 {
        fill: none;
      }

      .st3 {
        fill: #f3806d;
      }
    </style>
  </defs>
  <path class="st2" d="M476.9,94.6c-.73,1.12-.8,2.51-.19,3.6.81,1.43,2.52,1.85,3.81,1.59,1.81-.37,3.23-2.18,2.99-4.01-.21-1.59-1.59-2.46-1.81-2.59"/>
  <path class="st2" d="M538.55,62.81c1.32-.18,2.42-1.04,2.84-2.22.55-1.55-.25-3.11-1.3-3.91-1.47-1.13-3.77-1.01-4.99.37-1.06,1.2-.82,2.81-.77,3.07"/>
  <path class="st2" d="M264.22,36.78c.4-1.27.1-2.63-.78-3.52-1.16-1.17-2.92-1.11-4.09-.52-1.65.84-2.53,2.97-1.81,4.66.63,1.48,2.19,1.95,2.43,2.02"/>
  <path class="st2" d="M73.53,95.74c-.48,1.25-.25,2.62.58,3.56,1.09,1.23,2.85,1.28,4.05.75,1.69-.75,2.69-2.82,2.07-4.55-.54-1.51-2.07-2.07-2.32-2.15"/>
  <path class="st2" d="M131.35,66.68c-.12,1.33.46,2.59,1.51,3.27,1.38.89,3.09.46,4.11-.37,1.43-1.17,1.84-3.44.77-4.94-.93-1.31-2.55-1.44-2.81-1.45"/>
  <path class="st2" d="M134.03,19.13c1.27-.4,2.22-1.42,2.45-2.65.3-1.62-.75-3.03-1.91-3.65-1.63-.87-3.88-.38-4.86,1.18-.86,1.36-.35,2.91-.27,3.15"/>
  <path class="st2" d="M57.22,36.74c.4-1.27.1-2.63-.78-3.52-1.16-1.17-2.92-1.11-4.09-.52-1.65.84-2.53,2.97-1.81,4.66.63,1.48,2.19,1.95,2.43,2.02"/>
  <path class="st2" d="M12,78c-1.33.08-2.49.86-3,2-.67,1.5.02,3.12,1,4,1.38,1.23,3.68,1.28,5,0,1.15-1.12,1.02-2.75,1-3"/>
  <line class="st1" x1="15.62" y1="77.07" x2="56.58" y2="39.41"/>
  <line class="st1" x1="75.45" y1="92.63" x2="15.62" y2="77.07"/>
  <line class="st1" x1="131.47" y1="64.11" x2="15.62" y2="77.07"/>
  <line class="st1" x1="131.47" y1="19.94" x2="15.62" y2="77.07"/>
  <line class="st1" x1="56.58" y1="39.41" x2="131.47" y2="19.94"/>
  <line class="st1" x1="131.47" y1="64.11" x2="56.58" y2="39.41"/>
  <line class="st1" x1="75.45" y1="92.63" x2="56.58" y2="39.41"/>
  <line class="st1" x1="131.47" y1="19.94" x2="131.47" y2="64.11"/>
  <line class="st1" x1="75.45" y1="92.63" x2="131.47" y2="19.94"/>
  <line class="st1" x1="131.47" y1="64.11" x2="75.45" y2="92.63"/>
  <line class="st1" x1="222.75" y1="78.25" x2="263.71" y2="40.59"/>
  <line class="st1" x1="263.71" y1="40.59" x2="338.6" y2="21.12"/>
  <line class="st1" x1="338.6" y1="65.29" x2="263.71" y2="40.59"/>
  <line class="st1" x1="282.58" y1="93.81" x2="263.71" y2="40.59"/>
  <line class="st1" x1="478.79" y1="91.91" x2="418.96" y2="76.35"/>
  <line class="st1" x1="534.81" y1="63.39" x2="418.96" y2="76.35"/>
  <line class="st1" x1="534.81" y1="19.22" x2="418.96" y2="76.35"/>
  <line class="st1" x1="459.91" y1="38.69" x2="534.81" y2="19.22"/>
  <line class="st1" x1="478.79" y1="91.91" x2="534.81" y2="19.22"/>
  <path class="st3" d="M19.94,77.07c0,2.39-1.93,4.32-4.32,4.32s-4.32-1.93-4.32-4.32,1.93-4.32,4.32-4.32,4.32,1.93,4.32,4.32"/>
  <path class="st3" d="M60.9,39.41c0,2.39-1.93,4.32-4.32,4.32s-4.32-1.93-4.32-4.32,1.93-4.32,4.32-4.32,4.32,1.93,4.32,4.32"/>
  <path class="st3" d="M79.77,92.63c0,2.39-1.93,4.32-4.32,4.32s-4.32-1.93-4.32-4.32,1.93-4.32,4.32-4.32,4.32,1.93,4.32,4.32"/>
  <path class="st3" d="M135.79,64.11c0,2.39-1.93,4.32-4.32,4.32s-4.32-1.93-4.32-4.32,1.93-4.32,4.32-4.32,4.32,1.93,4.32,4.32"/>
  <path class="st3" d="M135.79,19.94c0,2.39-1.93,4.32-4.32,4.32s-4.32-1.93-4.32-4.32,1.93-4.32,4.32-4.32,4.32,1.93,4.32,4.32"/>
  <path class="st3" d="M227.07,78.25c0,2.39-1.93,4.32-4.32,4.32s-4.32-1.93-4.32-4.32,1.93-4.32,4.32-4.32,4.32,1.93,4.32,4.32"/>
  <path class="st3" d="M268.03,40.59c0,2.39-1.93,4.32-4.32,4.32s-4.32-1.93-4.32-4.32,1.93-4.32,4.32-4.32,4.32,1.93,4.32,4.32"/>
  <path class="st3" d="M286.9,93.81c0,2.39-1.93,4.32-4.32,4.32s-4.32-1.93-4.32-4.32,1.93-4.32,4.32-4.32,4.32,1.93,4.32,4.32"/>
  <path class="st3" d="M342.92,65.29c0,2.39-1.93,4.32-4.32,4.32s-4.32-1.93-4.32-4.32,1.93-4.32,4.32-4.32,4.32,1.93,4.32,4.32"/>
  <path class="st3" d="M342.92,21.12c0,2.39-1.93,4.32-4.32,4.32s-4.32-1.93-4.32-4.32,1.93-4.32,4.32-4.32,4.32,1.93,4.32,4.32"/>
  <path class="st3" d="M423.28,76.35c0,2.39-1.93,4.32-4.32,4.32s-4.32-1.93-4.32-4.32,1.93-4.32,4.32-4.32,4.32,1.93,4.32,4.32"/>
  <path class="st3" d="M464.23,38.69c0,2.39-1.93,4.32-4.32,4.32s-4.32-1.93-4.32-4.32,1.93-4.32,4.32-4.32,4.32,1.93,4.32,4.32"/>
  <path class="st3" d="M483.11,91.91c0,2.39-1.93,4.32-4.32,4.32s-4.32-1.93-4.32-4.32,1.93-4.32,4.32-4.32,4.32,1.93,4.32,4.32"/>
  <path class="st3" d="M539.13,63.39c0,2.39-1.93,4.32-4.32,4.32s-4.32-1.93-4.32-4.32,1.93-4.32,4.32-4.32,4.32,1.93,4.32,4.32"/>
  <path class="st3" d="M539.13,19.22c0,2.39-1.93,4.32-4.32,4.32s-4.32-1.93-4.32-4.32,1.93-4.32,4.32-4.32,4.32,1.93,4.32,4.32"/>
  <text class="st0" transform="translate(33.32 122.28)"><tspan x="0" y="0">all v all</tspan></text>
  <text class="st0" transform="translate(226.25 121.96)"><tspan x="0" y="0">one v all</tspan></text>
  <text class="st0" transform="translate(409.01 121.56)"><tspan x="0" y="0">specific pairs</tspan></text>
</svg>